HIERARCHY
ROOT Hips
{
	OFFSET 63.120499 -24.544516 97.024994
	CHANNELS 6 Xposition Yposition Zposition Xrotation Yrotation Zrotation
	JOINT spine
	{
		OFFSET 0.000000 -0.458069 7.965683
		CHANNELS 3 Xrotation Yrotation Zrotation
		JOINT spine1
		{
			OFFSET 0.000000 -0.000002 10.243103
			CHANNELS 3 Xrotation Yrotation Zrotation
			JOINT spine2
			{
				OFFSET 0.000000 -0.000002 9.814751
				CHANNELS 3 Xrotation Yrotation Zrotation
				JOINT Neck
				{
					OFFSET 0.000000 -1.201384 25.198601
					CHANNELS 3 Xrotation Yrotation Zrotation
					JOINT Head
					{
						OFFSET 0.000000 0.000000 7.613144
						CHANNELS 3 Xrotation Yrotation Zrotation
						End Site
						{
							OFFSET 0.000000 6.077326 18.428101
						}
					}
				}
				JOINT RightShoulder
				{
					OFFSET -4.132698 0.575449 10.599205
					CHANNELS 3 Xrotation Yrotation Zrotation
					JOINT RightArm
					{
						OFFSET 0.000000 -0.000002 13.901794
						CHANNELS 3 Xrotation Yrotation Zrotation
						JOINT RightArmRoll
						{
							OFFSET 0.000000 0.000000 7.017883
							CHANNELS 3 Xrotation Yrotation Zrotation
							JOINT RightForeArm
							{
								OFFSET 0.000000 -0.000004 20.440598
								CHANNELS 3 Xrotation Yrotation Zrotation
								JOINT RightForeArmRoll
								{
									OFFSET 0.000000 -0.000002 7.875153
									CHANNELS 3 Xrotation Yrotation Zrotation
									JOINT RightHand
									{
										OFFSET 0.000000 -0.000002 15.803696
										CHANNELS 3 Xrotation Yrotation Zrotation
										End Site
										{
											OFFSET 0.000000 0.000000 0.100006
										}
									}
								}
							}
						}
					}
				}
				JOINT LeftShoulder
				{
					OFFSET 4.132698 0.575449 10.599205
					CHANNELS 3 Xrotation Yrotation Zrotation
					JOINT LeftArm
					{
						OFFSET 0.000000 -0.000002 13.901794
						CHANNELS 3 Xrotation Yrotation Zrotation
						JOINT LeftArmRoll
						{
							OFFSET 0.000000 0.000000 7.017883
							CHANNELS 3 Xrotation Yrotation Zrotation
							JOINT LeftForeArm
							{
								OFFSET 0.000000 -0.000004 20.440598
								CHANNELS 3 Xrotation Yrotation Zrotation
								JOINT LeftForeArmRoll
								{
									OFFSET 0.000000 -0.000002 7.875153
									CHANNELS 3 Xrotation Yrotation Zrotation
									JOINT LeftHand
									{
										OFFSET 0.000000 -0.000002 15.803696
										CHANNELS 3 Xrotation Yrotation Zrotation
										End Site
										{
											OFFSET 0.000000 0.000000 0.100006
										}
									}
								}
							}
						}
					}
				}
			}
		}
	}
	JOINT RightUpLeg
	{
		OFFSET -7.060478 1.086090 -1.294701
		CHANNELS 3 Xrotation Yrotation Zrotation
		JOINT RightUpLegRoll
		{
			OFFSET 0.000000 -0.000004 18.530800
			CHANNELS 3 Xrotation Yrotation Zrotation
			JOINT RightLeg
			{
				OFFSET 0.000000 0.000004 -22.947601
				CHANNELS 3 Xrotation Yrotation Zrotation
				JOINT RightLegRoll
				{
					OFFSET 0.000000 -0.000004 23.022598
					CHANNELS 3 Xrotation Yrotation Zrotation
					JOINT RightFoot
					{
						OFFSET 0.000000 -0.000002 19.162506
						CHANNELS 3 Xrotation Yrotation Zrotation
						JOINT RightToeBase
						{
							OFFSET 0.000000 -0.000004 16.018799
							CHANNELS 3 Xrotation Yrotation Zrotation
							End Site
							{
								OFFSET 0.006790 0.894205 7.757812
							}
						}
					}
				}
			}
		}
	}
	JOINT LeftUpLeg
	{
		OFFSET 7.060478 1.086090 -1.294701
		CHANNELS 3 Xrotation Yrotation Zrotation
		JOINT LeftUpLegRoll
		{
			OFFSET 0.000000 -0.000004 18.530899
			CHANNELS 3 Xrotation Yrotation Zrotation
			JOINT LeftLeg
			{
				OFFSET 0.000000 -0.000004 22.947502
				CHANNELS 3 Xrotation Yrotation Zrotation
				JOINT LeftLegRoll
				{
					OFFSET 0.000000 -0.000004 23.235504
					CHANNELS 3 Xrotation Yrotation Zrotation
					JOINT LeftFoot
					{
						OFFSET 0.000000 -0.000002 18.949600
						CHANNELS 3 Xrotation Yrotation Zrotation
						JOINT LeftToeBase
						{
							OFFSET 0.000000 -0.000004 16.018799
							CHANNELS 3 Xrotation Yrotation Zrotation
							End Site
							{
								OFFSET -0.030426 0.894205 7.757812
							}
						}
					}
				}
			}
		}
	}
}
MOTION
Frames: 12
Frame Time: 0.041667
64.100601 -23.414913 97.005592 -2.797128 0.219231 1.122281 -1.147164 0.050833 -0.307359 1.708854 0.124568 -0.600892 3.353898 0.117361 -0.602344 15.195388 -0.452775 5.796856 8.373132 -0.209042 5.938507 -14.962224 -67.952432 -17.899315 -43.521945 -107.736132 -17.357119 -0.000000 0.000002 0.000008 11.565346 4.713197 -1.289201 0.000002 0.000007 -3.004481 -5.000155 -7.999951 -0.000007 -3.540823 66.130916 4.894406 -47.554991 113.334538 42.213458 0.000003 -0.000001 -0.000001 0.878398 9.109929 0.546573 0.000002 -0.000004 3.000001 -5.000244 7.998874 -0.000141 2.137472 -175.972803 3.536984 -179.999991 0.000005 -1.170006 175.847072 -1.608766 -0.398797 -0.000003 0.000001 0.050100 69.366752 6.952524 1.960777 25.456955 -7.355615 0.000002 0.020079 174.421994 -2.050470 -0.000004 -0.000004 -1.116170 -9.576291 2.351664 0.421547 -0.000005 0.000001 -0.213756 72.043264 -6.874279 -1.939692 25.456947 7.355612 -0.000012 
64.095596 -23.418213 97.007095 -2.809618 0.228386 1.102818 -1.138801 0.051672 -0.306415 1.725565 0.125863 -0.599954 3.370607 0.118668 -0.601421 15.111473 -0.447857 5.786176 8.430296 -0.229904 5.932182 -15.021147 -67.919148 -17.964941 -43.511143 -107.787195 -17.284712 0.000000 0.000003 0.000010 11.595009 4.775442 -1.293643 0.000001 0.000008 -3.004480 -5.000154 -7.999952 -0.000005 -3.495994 66.100597 4.840707 -47.495937 113.372008 42.237108 0.000000 -0.000000 -0.000000 0.974504 9.162609 0.537206 0.000002 -0.000004 3.000001 -5.000244 7.998874 -0.000142 2.150542 -175.982829 3.534827 -179.999991 0.000005 -1.170007 175.857796 -1.611784 -0.399710 -0.000002 0.000002 0.050166 69.358932 6.952531 1.960768 25.456950 -7.355615 0.000002 0.040608 174.410001 -2.064154 -0.000005 -0.000004 -1.115900 -9.569413 2.355814 0.421460 -0.000005 0.000001 -0.213736 72.042622 -6.874269 -1.939730 25.456952 7.355614 -0.000013 
64.094498 -23.410511 97.013000 -2.823425 0.237412 1.083139 -1.130052 0.052529 -0.305303 1.743064 0.127211 -0.598714 3.388118 0.120031 -0.600197 15.023259 -0.442547 5.775532 8.491274 -0.252845 5.926328 -15.082111 -67.885127 -18.032866 -43.489887 -107.839289 -17.203223 -0.000000 0.000003 0.000011 11.630282 4.836252 -1.298085 0.000001 0.000007 -3.004483 -5.000156 -7.999952 -0.000007 -3.450047 66.069595 4.785682 -47.434404 113.411132 42.258507 0.000003 -0.000001 -0.000001 1.069778 9.215294 0.527646 0.000003 -0.000004 3.000000 -5.000243 7.998874 -0.000142 2.165303 -175.991859 3.533242 -179.999991 0.000005 -1.170006 175.868724 -1.615799 -0.399690 -0.000003 0.000002 0.050264 69.351200 6.952507 1.960751 25.456952 -7.355614 0.000001 0.063347 174.398007 -2.078183 -0.000004 -0.000004 -1.115640 -9.561607 2.360030 0.421325 -0.000005 0.000001 -0.213707 72.041748 -6.874239 -1.939779 25.456948 7.355614 -0.000012 
64.099304 -23.387115 97.010696 -2.838144 0.246352 1.063303 -1.121023 0.053399 -0.304072 1.761135 0.128595 -0.597264 3.406177 0.121432 -0.598764 14.932045 -0.436951 5.764924 8.554925 -0.277245 5.920826 -15.144459 -67.850621 -18.102334 -43.463745 -107.891307 -17.117853 0.000000 0.000003 0.000011 11.669575 4.896035 -1.302566 -0.000001 0.000006 -3.004484 -5.000155 -7.999952 -0.000008 -3.403371 66.037991 4.729760 -47.371552 113.451034 42.278885 0.000001 -0.000001 -0.000001 1.164484 9.267970 0.517894 0.000003 -0.000005 3.000000 -5.000242 7.998872 -0.000141 2.181245 -176.001885 3.531976 -179.999991 0.000005 -1.170006 175.879844 -1.618806 -0.399592 -0.000002 0.000001 0.050385 69.343373 6.952513 1.960643 25.456948 -7.355615 0.000002 0.087641 174.385016 -2.092464 -0.000005 -0.000004 -1.115400 -9.553148 2.364299 0.421157 -0.000006 0.000001 -0.213670 72.040792 -6.874240 -1.939738 25.456947 7.355612 -0.000011 
64.086205 -23.392212 97.012383 -2.853401 0.255247 1.043392 -1.111830 0.054276 -0.302776 1.779514 0.130001 -0.595694 3.424558 0.122856 -0.597210 14.839032 -0.431177 5.754346 8.620132 -0.302484 5.915565 -15.207604 -67.815917 -18.172714 -43.433750 -107.943517 -17.029270 0.000000 0.000003 0.000011 11.711088 4.955228 -1.307102 0.000001 0.000007 -3.004479 -5.000155 -7.999952 -0.000006 -3.356291 66.005985 4.673352 -47.309117 113.491045 42.299905 0.000002 -0.000001 -0.000001 1.258875 9.320642 0.507961 0.000002 -0.000004 3.000001 -5.000241 7.998873 -0.000141 2.197862 -176.010942 3.530961 -179.999991 0.000005 -1.170006 175.891018 -1.622820 -0.399562 -0.000003 0.000001 0.050519 69.335545 6.952517 1.960636 25.456950 -7.355615 0.000002 0.112823 174.372995 -2.106881 -0.000005 -0.000004 -1.115160 -9.544301 2.368602 0.420972 -0.000005 0.000001 -0.213629 72.039706 -6.874249 -1.939707 25.456948 7.355612 -0.000011 
64.087502 -23.364815 97.011391 -2.868770 0.264139 1.023466 -1.102600 0.055156 -0.301461 1.797975 0.131413 -0.594094 3.443017 0.124287 -0.595628 14.745513 -0.425334 5.743804 8.685702 -0.327943 5.910417 -15.270739 -67.781056 -18.243095 -43.403745 -107.995659 -16.940765 0.000000 0.000003 0.000007 11.753218 5.014286 -1.311723 0.000002 0.000007 -3.004481 -5.000155 -7.999951 -0.000006 -3.309207 65.973958 4.616933 -47.245412 113.531835 42.319528 0.000003 -0.000001 -0.000001 1.353211 9.373303 0.497851 0.000002 -0.000005 3.000001 -5.000243 7.998875 -0.000142 2.214647 -176.020969 3.529952 -179.999991 0.000005 -1.170006 175.902247 -1.625841 -0.399459 -0.000002 0.000001 0.050656 69.327718 6.952519 1.960526 25.456950 -7.355614 0.000001 0.138225 174.361028 -2.121340 -0.000004 -0.000004 -1.114930 -9.535373 2.372914 0.420781 -0.000006 0.000001 -0.213590 72.038531 -6.874260 -1.939781 25.456950 7.355613 -0.000011 
64.078911 -23.378510 97.007790 -2.883894 0.273069 1.003583 -1.093452 0.056032 -0.300181 1.816275 0.132815 -0.592556 3.461318 0.125708 -0.594106 14.652999 -0.419530 5.733303 8.750511 -0.352999 5.905234 -15.333192 -67.746228 -18.312714 -43.376745 -108.047275 -16.855037 -0.000000 0.000002 0.000009 11.794176 5.073619 -1.316435 -0.000000 0.000006 -3.004482 -5.000155 -7.999950 -0.000003 -3.262514 65.942116 4.560964 -47.183268 113.571819 42.340814 0.000001 -0.000001 -0.000001 1.447743 9.425967 0.487572 0.000000 -0.000005 3.000001 -5.000245 7.998874 -0.000141 2.231090 -176.029999 3.528875 -179.999991 0.000005 -1.170006 175.913407 -1.629842 -0.399427 -0.000002 0.000001 0.050788 69.319884 6.952519 1.960517 25.456955 -7.355613 0.000001 0.163185 174.349021 -2.135758 -0.000005 -0.000003 -1.114690 -9.526625 2.377206 0.420595 -0.000005 0.000001 -0.213549 72.037554 -6.874233 -1.939737 25.456950 7.355613 -0.000011 
64.079803 -23.359512 97.008690 -2.898356 0.282077 0.983816 -1.084500 0.056900 -0.298987 1.834175 0.134193 -0.591169 3.479229 0.127103 -0.592737 14.562592 -0.413875 5.722817 8.813434 -0.377035 5.899898 -15.394377 -67.711791 -18.380920 -43.351853 -108.099430 -16.770495 -0.000000 0.000002 0.000008 11.832447 5.133673 -1.321265 0.000001 0.000007 -3.004480 -5.000154 -7.999951 -0.000005 -3.216513 65.910554 4.505807 -47.120997 113.611700 42.361653 0.000001 -0.000001 -0.000001 1.542739 9.478606 0.477123 0.000003 -0.000005 3.000001 -5.000244 7.998874 -0.000141 2.246692 -176.040039 3.527483 -179.999991 0.000005 -1.170006 175.924486 -1.632862 -0.399326 -0.000002 0.000001 0.050903 69.312063 6.952517 1.960509 25.456950 -7.355614 0.000001 0.187040 174.336030 -2.150008 -0.000005 -0.000004 -1.114440 -9.518347 2.381465 0.420433 -0.000005 0.000001 -0.213516 72.036496 -6.874271 -1.939707 25.456948 7.355614 -0.000013 
64.058510 -23.407112 97.016685 -2.911756 0.291203 0.964229 -1.075869 0.057754 -0.297926 1.851444 0.135530 -0.590026 3.496498 0.128454 -0.591609 14.475674 -0.408483 5.712355 8.873285 -0.399431 5.894268 -15.453534 -67.677729 -18.446862 -43.336294 -108.150213 -16.694135 0.000000 0.000001 0.000007 11.866147 5.194884 -1.326195 -0.000001 0.000008 -3.004483 -5.000153 -7.999951 -0.000005 -3.171607 65.879565 4.451951 -47.060089 113.650721 42.383557 0.000002 -0.000001 -0.000001 1.638444 9.531243 0.466512 0.000002 -0.000005 3.000001 -5.000242 7.998874 -0.000142 2.260951 -176.049055 3.525704 -179.999991 0.000005 -1.170006 175.935359 -1.636877 -0.399299 -0.000002 0.000001 0.050991 69.304236 6.952514 1.960499 25.456953 -7.355615 0.000001 0.209119 174.324036 -2.164002 -0.000005 -0.000004 -1.114180 -9.510819 2.385660 0.420305 -0.000005 0.000001 -0.213489 72.035738 -6.874236 -1.939747 25.456947 7.355613 -0.000010 
64.059410 -23.387915 97.014801 -2.923730 0.300485 0.944886 -1.067670 0.058589 -0.297051 1.867835 0.136811 -0.589215 3.512889 0.129744 -0.590814 14.393565 -0.403464 5.701903 8.928942 -0.419567 5.888178 -15.510070 -67.644390 -18.509893 -43.327233 -108.201459 -16.622539 -0.000000 0.000003 0.000008 11.893768 5.257678 -1.331241 0.000001 0.000006 -3.004484 -5.000155 -7.999950 -0.000005 -3.128138 65.849423 4.399795 -47.002001 113.688130 42.407985 0.000001 -0.000001 -0.000001 1.735134 9.583868 0.455737 0.000003 -0.000004 3.000001 -5.000245 7.998875 -0.000141 2.273345 -176.059081 3.523302 -179.999991 0.000005 -1.170006 175.945987 -1.639883 -0.399207 -0.000002 0.000002 0.051044 69.296504 6.952514 1.960483 25.456955 -7.355614 0.000002 0.228762 174.312042 -2.177631 -0.000005 -0.000004 -1.113900 -9.504333 2.389779 0.420228 -0.000006 0.000001 -0.213473 72.035096 -6.874257 -1.939693 25.456947 7.355613 -0.000012 
64.056198 -23.380314 97.010895 -2.933855 0.309964 0.925852 -1.060032 0.059399 -0.296412 1.883115 0.138020 -0.588828 3.528168 0.130957 -0.590441 14.317555 -0.398930 5.691446 8.979252 -0.436824 5.881501 -15.563291 -67.611851 -18.569191 -43.332042 -108.251327 -16.562673 -0.000000 0.000003 0.000010 11.913415 5.322508 -1.336373 0.000002 0.000007 -3.004483 -5.000154 -7.999950 -0.000005 -3.086464 65.820334 4.349759 -46.946397 113.723770 42.434405 0.000001 0.000000 -0.000001 1.833063 9.636470 0.444802 0.000002 -0.000005 3.000000 -5.000241 7.998873 -0.000141 2.283369 -176.069108 3.520154 -179.999991 0.000004 -1.170006 175.956260 -1.642901 -0.399125 -0.000003 0.000001 0.051053 69.288786 6.952514 1.960468 25.456952 -7.355613 0.000001 0.245304 174.299051 -2.190806 -0.000005 -0.000004 -1.113600 -9.499146 2.393790 0.420211 -0.000006 0.000001 -0.213470 72.034781 -6.874268 -1.939712 25.456950 7.355613 -0.000011 
64.051308 -23.380713 97.012695 -2.941750 0.319676 0.907191 -1.053072 0.060180 -0.296060 1.897046 0.139140 -0.588954 3.542100 0.132075 -0.590580 14.248944 -0.394997 5.680978 9.023056 -0.450578 5.874080 -15.612503 -67.580310 -18.624017 -43.351566 -108.300087 -16.514998 -0.000000 0.000002 0.000009 11.923589 5.389791 -1.341583 0.000001 0.000006 -3.004484 -5.000154 -7.999952 -0.000006 -3.046940 65.792508 4.302289 -46.891745 113.758399 42.460936 0.000003 -0.000001 -0.000001 1.932476 9.689061 0.433706 0.000001 -0.000005 3.000000 -5.000242 7.998872 -0.000141 2.290535 -176.080132 3.516056 -179.999991 0.000005 -1.170006 175.966164 -1.644911 -0.398981 -0.000003 0.000001 0.051006 69.281170 6.952515 1.960447 25.456955 -7.355614 0.000003 0.258078 174.286060 -2.203404 -0.000004 -0.000004 -1.113270 -9.495561 2.397681 0.420274 -0.000005 0.000001 -0.213484 72.034768 -6.874239 -1.939708 25.456947 7.355614 -0.000011 
